<?xml version="1.0" standalone="no"?>
<!DOCTYPE svg PUBLIC "-//W3C//DTD SVG 20010904//EN"
 "http://www.w3.org/TR/2001/REC-SVG-20010904/DTD/svg10.dtd">
<svg version="1.0" xmlns="http://www.w3.org/2000/svg"
 width="2000.000000pt" height="2000.000000pt" viewBox="0 0 2000.000000 2000.000000"
 preserveAspectRatio="xMidYMid meet">

<g transform="translate(0.000000,2000.000000) scale(0.100000,-0.100000)"
fill="#000000" stroke="none">
<path d="M17790 19286 c-88 -15 -101 -20 -200 -77 -42 -24 -92 -52 -112 -63
-23 -11 -56 -46 -91 -95 -84 -117 -117 -187 -138 -295 -17 -89 -18 -100 -3
-157 9 -36 13 -76 9 -96 -5 -27 0 -44 24 -83 27 -45 28 -49 13 -63 -32 -27
-127 -83 -182 -106 -30 -13 -83 -36 -117 -52 -34 -16 -68 -29 -75 -29 -11 0
-164 -74 -223 -108 -11 -6 -72 -36 -135 -67 -63 -30 -155 -77 -205 -105 -49
-27 -97 -53 -105 -56 -8 -4 -27 -15 -41 -25 -26 -18 -247 -132 -627 -325 -112
-56 -211 -109 -221 -118 -10 -9 -21 -16 -25 -16 -4 0 -20 -8 -34 -19 -38 -26
-108 -64 -247 -136 -120 -61 -142 -74 -265 -145 -36 -21 -83 -48 -105 -60 -49
-28 -158 -83 -205 -103 -19 -8 -61 -26 -93 -41 -32 -14 -59 -26 -62 -26 -2 0
-47 -27 -99 -60 -53 -33 -110 -68 -128 -78 -210 -118 -281 -156 -458 -244 -91
-46 -166 -86 -168 -90 -2 -5 -11 -8 -20 -9 -9 0 -30 -9 -47 -20 -16 -10 -37
-22 -45 -26 -8 -4 -56 -33 -107 -65 -51 -32 -97 -58 -103 -58 -5 0 -10 -4 -10
-9 0 -5 -8 -11 -17 -14 -10 -4 -49 -24 -88 -46 -38 -23 -77 -44 -85 -47 -41
-19 -111 -74 -161 -127 l-56 -59 -12 -137 c-6 -75 -11 -246 -11 -379 0 -199
-3 -249 -16 -282 -13 -31 -14 -43 -4 -54 9 -12 7 -17 -8 -25 -12 -6 -22 -26
-26 -51 -7 -46 -19 -49 -70 -21 -19 11 -51 23 -70 27 -20 3 -39 10 -42 15 -3
5 -18 9 -35 9 -16 0 -37 4 -47 9 -9 5 -44 17 -77 26 -33 9 -70 21 -83 26 -13
5 -34 9 -48 9 -14 0 -33 4 -42 9 -9 5 -41 11 -70 15 -30 3 -62 11 -72 16 -10
6 -30 10 -44 10 -14 0 -45 4 -68 9 -24 6 -74 15 -113 21 -38 7 -95 16 -125 21
-30 6 -84 14 -120 18 -36 4 -101 13 -145 20 -44 6 -116 16 -160 21 -44 5 -120
14 -170 20 -83 10 -845 14 -1060 5 -126 -4 -293 -21 -405 -41 -52 -9 -135 -20
-185 -24 -83 -8 -173 -24 -285 -50 -25 -6 -67 -15 -95 -20 -27 -4 -79 -17
-115 -28 -36 -11 -92 -28 -125 -37 -33 -9 -71 -20 -85 -25 -28 -9 -72 -20
-170 -45 -85 -22 -131 -35 -152 -46 -27 -14 -66 -11 -93 7 -14 9 -34 14 -46
11 -28 -8 -49 2 -49 22 0 9 -12 38 -26 65 -23 43 -25 57 -20 110 4 40 0 88
-10 141 -11 51 -19 147 -21 262 -4 163 -6 183 -24 199 -22 20 -25 34 -6 34 7
0 26 13 42 30 28 29 28 30 9 51 -24 27 -162 139 -170 139 -4 0 -21 10 -38 23
-17 13 -139 76 -271 141 -132 65 -361 178 -510 251 -148 73 -290 142 -315 153
-25 11 -87 38 -138 61 -50 23 -94 41 -97 41 -4 0 -39 15 -170 75 -70 32 -689
341 -750 374 -27 15 -66 33 -85 40 -19 8 -63 27 -98 43 -35 15 -68 28 -73 28
-5 0 -17 4 -27 9 -9 5 -89 37 -177 71 -219 86 -366 155 -710 335 -69 36 -134
65 -144 65 -63 0 -170 42 -306 120 -110 63 -200 100 -244 100 -9 0 -36 16 -58
35 -23 19 -46 35 -51 35 -12 0 -22 24 -22 55 0 13 15 52 33 87 54 104 67 158
67 277 0 74 -5 115 -15 135 -8 15 -15 39 -15 52 0 16 -13 32 -44 53 -28 19
-52 48 -66 76 -12 25 -42 73 -67 107 -67 91 -119 131 -189 144 -19 3 -37 10
-40 15 -9 15 -412 11 -464 -5 -88 -27 -196 -100 -262 -179 -82 -97 -118 -155
-118 -192 0 -12 -6 -38 -14 -56 -10 -25 -15 -90 -17 -229 -4 -229 -5 -225 105
-334 39 -39 99 -103 134 -141 l62 -70 24 28 c28 32 35 33 78 9 42 -23 109 -46
173 -60 28 -6 62 -13 77 -16 30 -7 26 25 52 -367 14 -227 18 -251 41 -298 25
-48 30 -76 56 -296 6 -44 14 -321 18 -615 5 -312 13 -554 19 -580 6 -25 11
-71 12 -102 0 -32 4 -77 10 -100 11 -51 37 -235 46 -328 18 -196 54 -453 83
-600 4 -25 14 -76 20 -115 7 -38 16 -92 22 -118 5 -27 9 -113 9 -191 0 -109 5
-164 21 -236 24 -105 37 -170 45 -215 24 -147 32 -213 32 -290 1 -49 6 -118
12 -152 5 -35 14 -91 20 -125 19 -125 42 -254 50 -288 36 -149 47 -238 31
-256 -8 -8 -1 -54 27 -166 14 -55 26 -64 152 -113 117 -46 151 -55 196 -55 21
0 55 -5 74 -11 42 -13 106 -27 175 -38 28 -4 64 -14 80 -21 47 -20 67 -27 110
-39 22 -6 67 -18 100 -27 33 -9 68 -20 77 -25 10 -5 26 -9 36 -9 17 0 53 -14
102 -39 8 -4 43 -16 78 -26 90 -27 94 -39 43 -145 -4 -8 -15 -42 -25 -75 -10
-33 -24 -71 -31 -85 -11 -22 -24 -61 -71 -210 -8 -25 -14 -57 -14 -72 0 -15
-4 -30 -10 -33 -5 -3 -10 -19 -10 -35 0 -16 -4 -39 -9 -52 -8 -22 -29 -93 -52
-183 -6 -22 -15 -54 -20 -72 -9 -30 -22 -120 -39 -273 -5 -41 -16 -127 -26
-190 -14 -90 -18 -190 -21 -455 -2 -302 0 -355 18 -475 12 -74 25 -160 29
-190 5 -30 16 -104 25 -165 9 -60 20 -146 25 -190 13 -111 35 -205 61 -257 5
-10 9 -27 9 -37 0 -11 5 -23 10 -26 6 -3 10 -14 10 -23 0 -9 7 -30 15 -46 8
-15 15 -36 15 -45 0 -9 4 -21 8 -27 4 -5 14 -27 21 -49 26 -80 82 -201 113
-246 10 -15 43 -76 74 -135 55 -106 101 -178 155 -239 111 -125 206 -236 227
-265 35 -47 64 -73 232 -209 58 -46 107 -87 110 -90 3 -3 25 -22 50 -42 25
-20 56 -47 70 -59 43 -39 164 -118 215 -141 30 -14 42 -21 122 -73 55 -37 124
-75 145 -83 10 -3 18 -9 18 -13 0 -4 8 -10 18 -13 9 -3 40 -20 67 -37 28 -16
58 -33 67 -36 17 -6 16 -8 -2 -34 -12 -16 -34 -32 -52 -36 -18 -3 -39 -10 -48
-14 -77 -38 -195 -66 -320 -76 -41 -4 -83 -10 -92 -15 -9 -5 -55 -12 -101 -15
-78 -6 -87 -5 -116 17 -18 13 -42 40 -54 59 -69 112 -232 197 -392 204 -49 3
-214 -41 -271 -71 -55 -29 -132 -116 -169 -189 -16 -32 -32 -61 -35 -64 -3 -3
-14 -24 -24 -48 -17 -38 -18 -54 -9 -185 10 -153 22 -191 81 -267 71 -91 184
-180 230 -180 7 0 20 -4 30 -9 9 -4 41 -16 70 -25 49 -16 61 -16 169 -1 99 14
122 21 157 46 79 58 135 104 156 132 21 27 65 37 86 19 8 -8 54 -21 179 -54
22 -6 57 -17 78 -24 20 -8 50 -14 65 -14 31 -1 62 -21 62 -42 0 -8 -15 -29
-34 -47 -19 -18 -46 -61 -61 -95 -14 -33 -30 -69 -36 -78 -5 -10 -9 -29 -9
-43 0 -26 -12 -84 -37 -176 -9 -31 -12 -62 -8 -69 4 -7 11 -81 16 -164 5 -110
12 -162 25 -191 10 -22 19 -50 20 -62 2 -19 28 -68 44 -83 3 -3 23 -27 45 -55
53 -66 104 -115 120 -115 7 0 18 -6 24 -14 6 -8 22 -16 34 -19 12 -3 59 -15
104 -27 81 -21 85 -21 160 -5 43 10 101 30 129 46 57 32 139 111 187 181 25
36 39 47 67 52 19 3 76 12 125 20 50 9 117 19 150 22 33 4 65 10 70 15 24 18
149 30 215 20 36 -6 90 -10 120 -8 l55 2 -3 -40 c-2 -22 -7 -44 -12 -50 -4 -5
-10 -26 -13 -45 -3 -19 -12 -56 -19 -82 -11 -44 -15 -48 -43 -48 -17 0 -37 6
-43 12 -9 9 -53 13 -146 13 -141 0 -177 -10 -262 -72 -17 -13 -35 -23 -40 -23
-5 0 -17 -8 -25 -17 -9 -10 -25 -25 -35 -34 -34 -28 -64 -72 -101 -149 -34
-68 -37 -82 -36 -151 2 -125 42 -279 73 -279 18 0 50 -30 50 -47 0 -20 57
-112 80 -131 14 -10 55 -40 92 -65 l68 -47 93 0 c51 0 98 -5 103 -10 7 -7 18
-2 34 15 13 14 31 25 40 25 11 0 20 11 24 28 15 67 74 82 97 24 6 -15 13 -115
15 -222 4 -181 13 -263 44 -381 6 -20 10 -47 10 -61 0 -14 16 -57 35 -97 19
-39 35 -75 35 -79 0 -5 26 -36 59 -69 62 -65 111 -153 111 -201 0 -16 5 -43
11 -61 8 -24 8 -70 -1 -178 l-11 -147 -57 -61 c-153 -163 -221 -268 -258 -397
-29 -98 -33 -236 -9 -282 8 -15 15 -35 15 -43 0 -8 9 -17 20 -20 16 -4 18 -9
9 -19 -12 -14 -3 -54 12 -54 5 0 9 -11 9 -25 0 -14 5 -25 10 -25 6 0 10 -6 10
-13 0 -21 175 -194 232 -230 59 -37 210 -107 231 -107 7 0 17 -4 23 -9 8 -8
81 -32 229 -76 33 -10 83 -18 110 -17 28 1 59 -3 70 -8 11 -5 81 -14 155 -20
74 -7 176 -16 225 -22 176 -20 315 -14 565 26 187 30 291 53 304 66 6 6 20 10
33 10 13 0 31 4 41 9 9 4 33 15 52 23 81 35 199 95 257 131 68 42 143 119 143
147 0 21 31 50 52 50 19 0 98 -96 98 -119 0 -9 13 -32 28 -51 16 -19 37 -53
47 -75 49 -112 47 -109 140 -219 34 -39 71 -84 83 -101 13 -16 103 -112 200
-213 173 -180 219 -217 367 -299 149 -84 206 -104 365 -129 19 -3 36 -9 38
-15 5 -13 63 -11 172 6 125 20 185 43 325 124 68 39 74 44 101 86 28 44 47 65
59 65 10 1 95 77 95 86 0 2 18 33 39 69 48 79 76 157 90 252 16 106 14 484 -3
563 -30 145 -72 270 -122 371 -37 75 -41 59 42 194 27 44 56 94 64 110 8 17
28 51 46 76 18 26 51 83 74 128 23 44 46 81 52 81 5 0 33 -24 61 -52 62 -63
122 -116 197 -178 30 -25 64 -53 75 -63 19 -17 110 -64 230 -117 117 -52 156
-65 225 -75 25 -4 54 -9 65 -12 47 -11 571 -15 634 -5 36 6 102 16 146 23 44
6 103 15 130 19 28 5 79 13 115 18 64 10 125 28 145 42 6 4 46 20 90 34 44 15
93 33 109 41 17 8 38 10 50 6 12 -5 53 -50 93 -102 89 -117 134 -159 169 -159
35 0 85 53 124 133 31 65 81 155 107 196 8 13 35 62 60 110 25 47 49 88 52 91
4 3 26 43 48 90 22 47 52 105 67 128 14 23 26 46 26 51 0 5 16 37 35 71 19 34
35 68 35 76 0 8 5 14 10 14 6 0 10 5 10 11 0 6 7 27 16 47 9 21 20 46 24 57 4
11 13 34 20 50 29 72 50 152 45 172 -3 12 -15 32 -27 43 -19 17 -546 197 -633
216 -16 3 -86 23 -155 44 -169 52 -227 68 -280 76 -25 3 -78 17 -117 31 -53
18 -89 23 -135 21 -61 -3 -63 -4 -80 -38 -22 -45 -22 -61 1 -140 34 -117 61
-246 61 -292 0 -44 -21 -78 -47 -78 -6 0 -13 -4 -15 -8 -6 -15 -136 -89 -301
-171 -134 -67 -176 -84 -210 -83 -48 1 -125 -19 -208 -53 -82 -34 -251 -45
-304 -19 -21 9 -56 17 -79 16 -48 -2 -80 13 -198 91 -47 31 -91 57 -97 57 -6
0 -15 9 -21 19 -5 11 -24 28 -40 38 -21 12 -30 25 -30 43 0 17 -13 38 -35 60
-33 32 -48 80 -25 80 6 0 10 37 10 91 0 50 5 99 10 110 15 26 16 98 6 285 -8
156 -8 162 12 182 18 18 25 19 59 9 21 -6 61 -24 88 -39 140 -80 202 -93 491
-104 l142 -6 108 37 c60 20 118 43 130 50 12 8 38 17 59 21 64 12 165 82 290
202 116 111 165 171 165 202 0 8 7 28 15 44 8 15 15 36 15 45 0 9 4 21 8 26 4
6 14 28 21 50 7 22 19 54 26 70 28 68 37 127 40 257 1 108 5 141 18 160 9 13
24 34 34 46 24 34 28 165 9 293 -23 157 -104 342 -208 476 -26 35 -48 66 -48
70 0 5 -16 21 -35 36 -25 20 -35 36 -35 55 0 39 17 52 67 52 23 0 77 11 119
25 42 14 88 25 101 25 30 0 121 29 129 41 3 5 18 9 34 9 16 0 31 4 34 8 3 5
31 15 63 22 32 8 82 24 111 37 29 13 59 23 66 23 8 0 27 7 42 15 45 23 61 18
112 -33 60 -61 136 -122 151 -122 20 0 115 -32 130 -44 8 -6 57 -10 121 -8
101 2 112 4 172 35 127 67 166 98 218 172 83 117 118 222 106 322 -13 113 -19
138 -41 168 -12 16 -28 49 -35 73 -16 52 -123 158 -191 189 -119 56 -115 55
-201 49 -228 -15 -212 -11 -328 -95 -137 -99 -164 -131 -184 -221 -3 -14 -19
-33 -37 -42 -32 -19 -98 -24 -114 -9 -14 12 -98 31 -139 31 -20 0 -54 7 -76
16 -35 14 -45 15 -66 3 -23 -12 -32 -10 -102 25 -42 21 -85 43 -94 47 -10 5
-29 9 -43 9 -22 0 -216 60 -290 90 -17 7 -39 16 -50 20 -11 5 -31 11 -45 13
-48 10 -105 35 -115 52 -8 13 -4 22 18 41 15 13 34 24 42 24 8 0 26 11 41 25
15 14 51 39 81 56 29 17 59 36 66 43 20 20 126 96 133 96 4 0 17 12 31 26 21
23 235 164 249 164 9 0 168 107 199 134 17 15 45 36 63 49 17 12 58 51 90 86
31 36 111 119 177 186 165 166 344 370 345 392 0 6 3 13 8 15 4 2 31 36 60 76
46 64 68 99 116 187 6 11 13 22 16 25 3 3 10 14 16 25 6 11 22 41 36 66 40 71
44 79 82 159 19 41 42 98 52 125 9 28 24 68 34 90 50 112 60 139 60 151 0 8 4
22 9 32 5 9 21 58 36 107 15 50 33 106 40 125 7 19 18 73 24 120 13 90 17 109
51 232 12 44 27 147 35 240 8 90 20 195 26 233 17 107 13 563 -6 715 -9 69
-19 157 -22 195 -3 39 -9 74 -14 79 -5 6 -9 23 -9 39 0 38 -28 151 -51 202 -9
22 -20 67 -24 100 -4 33 -11 74 -15 90 -5 17 -16 57 -25 90 -26 93 -37 127
-52 162 -7 17 -13 38 -13 47 0 25 -35 107 -65 151 -46 69 -77 142 -80 190 -2
28 -7 63 -11 78 -10 43 41 92 106 101 26 4 84 24 128 46 44 22 85 40 91 40 6
0 19 4 29 9 9 5 37 17 62 26 25 9 53 21 62 26 10 5 25 9 33 9 8 0 23 4 33 9 9
5 49 24 87 42 228 104 310 150 358 204 50 56 48 49 78 225 5 30 14 73 20 95 9
37 15 92 38 348 5 56 18 152 29 212 11 61 25 164 32 230 6 66 16 145 21 175
14 72 27 188 38 326 4 61 11 116 15 122 11 18 36 219 36 289 0 60 5 89 36 213
7 30 16 96 19 145 19 282 26 358 40 430 22 117 53 338 76 555 5 47 13 114 18
150 6 36 15 116 20 179 6 63 15 141 21 175 5 34 10 83 10 110 0 52 12 136 35
251 22 111 35 209 35 273 0 33 6 95 14 138 25 138 26 147 36 244 5 52 16 142
24 200 9 58 16 110 16 116 0 6 9 21 19 33 17 20 27 21 107 19 76 -2 102 2 174
27 47 16 102 39 122 52 21 13 42 23 46 23 5 0 22 19 37 42 16 24 72 87 124
141 53 54 101 108 107 120 46 87 61 350 26 457 -38 118 -127 252 -211 319
-120 94 -199 131 -326 151 -111 18 -140 19 -215 6z m-7112 -6091 c79 -8 152
-20 162 -25 10 -6 27 -10 37 -10 23 0 160 -44 222 -72 225 -99 337 -171 500
-324 191 -179 334 -408 394 -634 32 -120 37 -154 37 -263 -1 -376 -148 -692
-421 -901 -108 -83 -292 -166 -367 -166 -27 0 -32 -18 -32 -118 0 -105 -15
-203 -32 -214 -22 -14 -288 -10 -292 5 -2 6 -8 80 -14 164 -6 84 -16 161 -22
172 -16 31 -57 37 -88 14 l-27 -20 -5 -172 -5 -172 -102 -2 c-78 -2 -104 1
-108 11 -3 8 -5 76 -5 151 0 76 -5 152 -11 170 -18 50 -77 56 -111 11 -16 -21
-20 -51 -25 -178 -4 -93 -10 -155 -17 -160 -14 -9 -299 -3 -308 6 -4 4 -9 70
-10 147 l-3 140 -123 17 c-263 38 -449 127 -622 298 -84 83 -160 175 -160 195
0 3 -11 23 -25 43 -22 32 -64 135 -104 252 -6 19 -16 82 -22 139 -31 302 67
624 267 881 249 319 675 560 1089 614 135 18 186 18 353 1z m2077 -2870 c322
-125 335 -130 515 -219 144 -72 209 -107 300 -165 36 -23 72 -44 80 -48 25
-12 211 -153 285 -217 137 -117 303 -297 367 -397 9 -14 23 -33 31 -41 29 -29
147 -282 176 -377 64 -208 75 -294 76 -551 0 -210 -2 -246 -23 -334 -35 -153
-109 -353 -154 -418 -10 -14 -18 -29 -18 -33 0 -9 -103 -158 -148 -215 -118
-149 -382 -383 -482 -428 -148 -66 -334 -146 -415 -178 -49 -20 -99 -40 -111
-46 -11 -5 -36 -10 -55 -11 l-34 -2 -6 85 c-4 47 -14 110 -24 140 -90 289
-361 553 -671 653 -148 48 -180 52 -379 51 -180 0 -196 -2 -311 -32 -123 -32
-203 -56 -239 -72 -181 -80 -355 -153 -372 -157 -13 -3 -23 -9 -23 -14 0 -5
-5 -9 -11 -9 -6 0 -63 -21 -127 -46 -275 -109 -417 -139 -617 -131 -173 7
-270 26 -600 117 -321 89 -405 104 -600 104 -170 0 -261 -14 -393 -58 -256
-87 -470 -273 -538 -465 -25 -71 -31 -159 -13 -193 9 -16 8 -24 -5 -36 -13
-13 -20 -14 -43 -3 -15 7 -95 30 -178 51 -220 57 -321 89 -507 163 -92 37
-178 69 -192 73 -14 3 -30 12 -37 20 -6 8 -16 14 -20 14 -8 0 -124 75 -174
112 -150 111 -350 298 -436 408 -142 179 -243 389 -280 580 -17 86 -23 365 -9
445 22 133 63 300 97 400 124 358 443 735 853 1009 108 73 324 196 343 196 7
0 17 4 22 9 6 5 46 24 90 41 44 18 89 36 100 40 117 48 255 89 395 118 30 6
88 18 129 27 131 27 297 17 396 -25 11 -4 47 -18 80 -30 33 -13 74 -28 90 -35
17 -7 77 -31 135 -54 58 -23 114 -46 125 -51 11 -5 97 -39 190 -75 94 -37 190
-76 215 -87 25 -11 54 -23 65 -28 11 -4 47 -19 80 -33 33 -14 79 -32 102 -41
23 -9 61 -24 85 -35 24 -10 75 -31 113 -46 39 -15 86 -34 105 -42 234 -101
312 -120 470 -109 94 6 177 26 255 61 22 10 67 31 100 46 53 24 167 75 330
149 28 13 78 36 113 51 34 16 64 29 66 29 3 0 46 20 98 44 51 24 176 78 278
121 101 42 198 82 215 89 26 12 119 49 190 76 11 4 38 15 60 23 22 9 58 21 80
28 22 6 47 14 55 17 102 37 192 36 295 -3z m-545 -2870 c66 -10 99 -19 107
-32 8 -10 13 -47 13 -92 0 -42 5 -148 10 -235 12 -179 20 -199 74 -194 52 5
56 26 41 258 -7 113 -10 208 -8 213 10 17 47 4 139 -48 287 -163 434 -373 434
-621 0 -83 -2 -95 -20 -104 -59 -32 -620 -151 -920 -195 -546 -81 -1016 -111
-1595 -102 -608 10 -1152 61 -1720 161 -418 74 -395 66 -420 138 -17 51 -18
64 -7 128 20 116 91 210 237 315 77 54 213 120 290 140 193 51 274 57 425 30
52 -9 118 -20 145 -24 28 -5 107 -23 175 -41 312 -80 430 -108 500 -120 41 -6
97 -16 123 -21 88 -17 317 -11 430 11 93 18 258 66 312 90 11 5 61 26 110 46
50 19 117 48 150 64 176 81 372 158 510 200 57 17 188 41 200 36 9 -3 14 -78
19 -262 9 -294 13 -314 71 -314 24 0 37 6 45 19 6 13 8 108 3 279 -3 143 -3
267 0 276 8 19 8 19 127 1z m-6670 -777 c107 -51 173 -136 191 -247 20 -119
-10 -222 -89 -304 -198 -206 -542 -99 -591 186 -28 161 69 323 229 381 68 25
190 17 260 -16z m10400 -63 c128 -21 242 -129 270 -257 36 -162 -40 -323 -186
-394 -53 -26 -69 -29 -159 -28 -108 0 -111 1 -208 73 -193 143 -161 464 58
579 31 16 139 40 165 36 8 -1 35 -5 60 -9z m-9394 -765 c38 -9 43 -14 53 -54
11 -47 54 -91 96 -102 26 -6 65 11 132 58 l38 27 145 -24 c278 -48 532 -76
740 -83 l205 -7 -1 -35 c-1 -19 -7 -53 -13 -75 -7 -22 -16 -53 -21 -70 -42
-148 -54 -182 -66 -196 -9 -10 -55 -21 -131 -33 -65 -10 -140 -22 -168 -27
-137 -25 -542 -59 -700 -59 -202 0 -231 -9 -253 -75 -7 -22 -10 -51 -7 -65 10
-38 55 -80 86 -80 23 0 59 -25 48 -33 -28 -20 -62 -36 -101 -46 -134 -37 -295
83 -349 262 -50 165 -14 441 79 592 67 109 106 149 137 139 5 -1 29 -8 51 -14z
m7839 -229 c17 -14 51 -50 75 -79 25 -29 53 -62 62 -72 35 -37 113 -168 146
-245 34 -77 61 -175 62 -223 0 -23 -3 -24 -47 -18 -58 8 -88 -6 -120 -53 -31
-47 -29 -80 10 -137 60 -87 68 -111 74 -210 6 -93 -7 -215 -30 -284 -19 -58
-80 -167 -120 -215 -21 -25 -66 -68 -100 -95 -82 -67 -73 -61 -152 -102 -91
-47 -184 -75 -315 -95 -140 -21 -265 -7 -395 44 -120 48 -165 77 -273 178 -66
61 -222 283 -222 314 0 10 -4 21 -9 27 -12 13 -46 107 -67 189 -28 105 -25
314 5 415 42 138 97 237 181 321 128 129 214 161 429 158 84 0 137 3 152 11
41 21 59 52 59 101 l0 46 133 6 c72 4 191 17 262 31 72 13 139 21 150 18 11
-2 34 -16 50 -31z m-3911 -339 c3 -5 76 -42 163 -82 87 -39 194 -89 238 -110
104 -49 243 -110 250 -110 3 0 25 -9 49 -19 23 -11 67 -29 97 -41 30 -11 68
-27 84 -35 44 -20 340 -133 410 -157 33 -11 64 -24 70 -29 5 -5 17 -9 27 -9
10 0 26 -4 36 -9 9 -6 42 -18 72 -27 30 -9 73 -25 95 -34 43 -19 372 -125 569
-185 66 -19 125 -40 132 -46 7 -6 16 -25 20 -42 9 -43 98 -222 134 -272 16
-22 34 -56 40 -75 14 -51 12 -444 -5 -660 -14 -181 -36 -365 -54 -445 -5 -22
-12 -56 -16 -75 -12 -63 -26 -87 -67 -120 -22 -18 -47 -49 -55 -69 -60 -153
-131 -294 -215 -431 -33 -52 -62 -101 -67 -109 -12 -23 -28 -24 -48 -4 -43 43
-124 93 -152 93 -23 0 -72 -35 -87 -62 -8 -13 -13 -43 -14 -67 0 -40 4 -47 48
-85 115 -99 180 -177 229 -274 96 -191 133 -348 133 -574 0 -168 -20 -264 -84
-394 -85 -173 -237 -291 -426 -330 -78 -17 -106 -17 -184 -3 -196 35 -378 137
-574 324 -99 95 -248 264 -308 350 -11 17 -36 53 -56 80 -62 89 -176 283 -211
359 -76 163 -69 247 29 371 92 116 104 245 39 408 -37 94 -79 154 -150 216
-85 74 -165 112 -267 126 -47 7 -48 8 -63 58 -8 28 -15 57 -15 65 0 15 -72
228 -88 258 -5 10 -20 44 -33 74 -13 30 -29 62 -36 71 -7 8 -13 19 -13 23 0
21 -115 180 -181 250 -158 170 -349 277 -599 337 -68 17 -311 18 -365 2 -22
-6 -67 -19 -100 -29 -85 -24 -227 -97 -312 -161 -83 -62 -216 -201 -272 -282
-48 -72 -131 -223 -140 -259 -11 -41 -34 -38 -53 5 -48 109 -57 137 -72 209
-41 210 -46 561 -12 789 24 158 58 319 70 331 6 7 40 19 76 28 176 44 387 104
412 117 10 5 23 9 29 9 19 0 423 143 584 207 50 19 99 39 110 43 110 42 444
189 610 268 167 79 468 232 480 243 11 11 52 12 59 1z m-2889 -676 c102 -27
174 -82 227 -175 31 -53 33 -61 33 -156 0 -91 -3 -105 -30 -159 -35 -70 -107
-135 -191 -172 -138 -61 -321 0 -408 136 -36 55 -56 128 -56 200 0 54 6 77 34
135 42 86 79 125 151 160 93 46 155 54 240 31z m1730 -1070 c72 -12 117 -25
225 -67 58 -22 192 -123 261 -196 148 -158 253 -375 308 -638 26 -130 40 -245
29 -252 -5 -2 -22 1 -39 7 -63 26 -129 -32 -129 -114 0 -43 4 -50 47 -89 115
-104 201 -189 228 -227 17 -23 43 -58 58 -78 45 -58 68 -112 77 -182 18 -129
-45 -248 -177 -336 -32 -22 -71 -44 -88 -50 -16 -7 -59 -24 -95 -40 -61 -25
-85 -33 -170 -54 -19 -5 -64 -16 -100 -25 -156 -40 -333 -59 -555 -58 -214 1
-365 10 -380 24 -5 5 -25 9 -45 9 -20 0 -72 9 -116 21 -43 12 -95 25 -114 29
-44 10 -99 27 -125 39 -11 4 -56 23 -100 41 -237 99 -384 278 -373 455 5 83
48 167 152 296 85 105 103 124 211 214 33 27 69 57 79 67 11 10 22 18 26 18
14 0 40 61 40 95 0 73 -44 112 -117 106 -33 -3 -33 -2 -33 43 0 99 67 324 132
445 74 137 196 285 301 365 57 43 190 104 267 121 41 9 80 18 85 20 26 8 158
3 230 -9z m1151 -1172 c39 -19 106 -88 132 -138 31 -59 37 -132 15 -181 -42
-92 -75 -117 -92 -72 -5 12 -41 64 -79 116 l-70 94 -1 95 c0 53 3 100 6 105 6
10 44 2 89 -19z m-2646 -865 c0 -10 5 -19 10 -19 6 0 10 -9 10 -19 0 -11 5
-23 10 -26 6 -3 10 -16 9 -28 l0 -22 -9 21 c-5 12 -13 25 -19 29 -6 3 -11 15
-11 26 0 10 -4 19 -10 19 -5 0 -10 12 -10 26 0 14 4 23 10 19 6 -3 10 -15 10
-26z"/>
<path d="M9377 11789 c-46 -111 -52 -143 -52 -274 0 -119 2 -134 25 -179 45
-88 133 -149 235 -161 117 -15 235 72 321 237 13 26 24 56 24 67 0 16 -33 44
-85 71 -5 3 -48 30 -95 61 -47 30 -130 84 -185 119 -55 36 -102 68 -105 72 -4
4 -20 11 -37 14 -29 6 -33 3 -46 -27z"/>
<path d="M11590 11726 c-25 -13 -133 -74 -240 -134 -107 -61 -207 -118 -223
-126 -42 -24 -43 -42 -6 -113 61 -116 151 -175 276 -181 229 -12 352 193 283
472 -26 105 -33 112 -90 82z"/>
<path d="M12686 9774 c-20 -19 -20 -24 -1 -38 12 -10 12 -19 -5 -70 -17 -49
-33 -71 -102 -139 -108 -107 -188 -199 -182 -209 3 -5 29 10 57 33 63 51 207
200 207 214 0 5 12 24 26 40 64 73 85 125 68 169 -8 21 -48 21 -68 0z"/>
<path d="M7424 9725 c-32 -49 9 -186 76 -250 16 -16 30 -35 30 -43 0 -7 -12
-40 -27 -73 -36 -75 -53 -76 -90 -4 -15 31 -38 65 -50 77 -20 19 -26 20 -48 8
-55 -29 -38 -133 41 -251 l47 -71 -22 -78 c-27 -101 -61 -318 -61 -398 0 -81
17 -245 32 -297 17 -63 41 -129 50 -140 4 -5 8 -15 8 -22 0 -27 72 -123 140
-186 71 -66 157 -115 265 -153 70 -24 287 -26 370 -2 101 28 204 80 260 130
16 16 33 28 37 28 13 0 134 165 165 225 42 81 79 197 98 303 28 162 14 460
-24 506 -6 8 -44 31 -84 51 -40 20 -76 40 -82 45 -18 13 -356 190 -655 342
-181 92 -198 99 -239 94 -40 -6 -46 -3 -78 30 -19 20 -43 56 -55 81 -20 43
-51 73 -75 73 -7 0 -20 -11 -29 -25z"/>
<path d="M13687 9730 c-14 -11 -36 -41 -49 -66 -12 -25 -37 -59 -55 -74 -26
-23 -38 -27 -70 -23 -33 4 -71 -11 -308 -127 -238 -116 -395 -194 -491 -244
-16 -9 -78 -38 -139 -65 -150 -68 -159 -76 -175 -180 -14 -94 -8 -364 10 -416
5 -16 22 -70 37 -120 14 -49 36 -108 48 -130 85 -154 107 -187 175 -256 91
-92 181 -146 300 -180 19 -6 49 -15 66 -20 41 -12 176 -11 250 2 182 32 340
132 436 276 90 135 122 270 122 518 1 169 -6 228 -45 387 -25 101 -24 109 11
162 79 117 103 230 55 262 -14 9 -31 14 -39 11 -8 -3 -31 -37 -53 -76 -47 -87
-63 -90 -98 -18 -26 56 -32 92 -16 101 5 3 25 30 45 60 61 93 77 200 33 228
-17 11 -22 10 -50 -12z"/>
<path d="M11852 9292 c-57 -9 -70 -163 -22 -257 33 -64 86 -106 142 -112 84
-10 93 53 16 102 -63 40 -78 74 -78 174 0 87 -9 101 -58 93z"/>
<path d="M12245 9258 c-38 -11 -71 -24 -73 -29 -2 -5 -14 -9 -27 -9 -13 0 -27
-4 -30 -10 -9 -15 -25 -12 -25 5 0 8 -6 15 -13 15 -19 0 -37 -21 -37 -45 0
-56 56 -59 154 -8 83 44 123 71 130 90 6 16 9 16 -79 -9z"/>
<path d="M10398 8221 c-149 -31 -290 -154 -318 -277 -29 -126 16 -230 140
-326 79 -61 141 -80 270 -86 105 -4 122 -2 195 23 46 15 99 42 125 62 61 49
119 114 120 135 0 9 5 18 12 20 8 3 12 33 13 94 0 77 -4 98 -24 138 -45 87
-117 147 -236 197 -55 23 -229 35 -297 20z m281 -193 c54 -26 95 -71 112 -120
10 -33 10 -43 -7 -80 -23 -51 -45 -73 -104 -103 -153 -77 -376 -28 -431 94
-10 24 -19 51 -19 61 0 25 27 74 58 105 80 81 269 102 391 43z"/>
</g>
</svg>
